<svg version="1.1" xmlns="http://www.w3.org/2000/svg" xmlns:xlink="http://www.w3.org/1999/xlink" width="190" height="36" viewBox="459,82,616.14167,117"><defs><clipPath id="clip-1"><rect x="4026.31579" y="700.8547" transform="scale(0.114,0.117)" width="1000" height="1000" id="clip-1" fill="none"/></clipPath></defs><g fill="none" fill-rule="nonzero" stroke="none" stroke-width="1" stroke-linecap="butt" stroke-linejoin="miter" stroke-miterlimit="10" stroke-dasharray="" stroke-dashoffset="0" font-family="none" font-weight="none" font-size="none" text-anchor="none" style="mix-blend-mode: normal"><g><g clip-path="url(#clip-1)" id="Group 1"><g id="Group 1"><g id="Group 1"><path d="M515.78568,117.84412l-33.63912,34.49745l3.59442,3.69018l3.59442,3.68901l35.397,-36.46305c20.36268,-20.9781 35.29212,-36.57069 35.10858,-36.65142c-0.15732,-0.10764 -2.3883,-0.8073 -4.959,-1.56195c-2.54562,-0.78039 -4.8279,-1.45431 -5.06388,-1.56195c-0.31464,-0.10881 -9.6558,9.31671 -34.03242,34.36173z" id="Path 1" fill="#267aa8"/><path d="M526.88586,124.71085l-35.79144,36.76023l6.79554,6.86673l6.82176,6.83982l33.5616,-34.41672l33.58668,-34.44363l-1.15482,-5.60196l-1.15482,-5.60196l-3.4371,-3.58137l-3.41088,-3.55329z" id="Path 1" fill="#04527c"/><path d="M477.34488,164.40544c-1.9152,5.14332 -3.46332,9.53316 -3.46332,9.74844c0,0.21528 2.12496,2.5857 4.6968,5.22405l4.6968,4.8204l9.02652,-3.44682c4.93278,-1.88487 9.2625,-3.58137 9.60336,-3.76974c0.57684,-0.29601 0.15732,-0.78039 -10.05024,-11.0682c-5.87784,-5.89797 -10.75818,-10.77219 -10.86306,-10.7991c-0.07866,-0.05265 -1.73166,4.12074 -3.64686,9.29097z" id="Path 1" fill="#956100"/><path d="M466.40316,186.03055c-3.33222,5.22405 -6.11382,9.69462 -6.2187,9.93681c-0.23598,0.64701 0.5244,1.6965 1.10238,1.53504c0.55062,-0.13455 19.41762,-12.09195 19.41762,-12.30723c0,-0.08073 -1.86276,-2.04633 -4.14618,-4.38984l-4.14618,-4.25529z" id="Path 1" fill="#000000"/></g></g></g></g><path d="M642.19167,96.43334h-40.36667c-6.06667,0 -10.96667,4.9 -10.96667,10.96667c0,5.95 4.9,10.85 10.96667,10.85h9.33333v56.46667c0,6.06667 4.9,10.85 10.85,10.85c6.06667,0 10.96667,-4.78333 10.96667,-10.85v-56.46667h9.21667c6.06667,0 10.96667,-4.9 10.96667,-10.85c0,-6.06667 -4.9,-10.96667 -10.96667,-10.96667zM656.425,107.40001v49.58333c0,16.8 13.65,30.56667 30.56667,30.56667c16.8,0 30.56667,-13.76667 30.56667,-30.56667v-49.58333v0c0,-6.06667 -4.9,-10.85 -10.85,-10.85c-6.06667,0 -10.96667,4.78333 -10.96667,10.85v0v49.58333c0,4.78333 -3.96667,8.75 -8.75,8.75c-4.78333,0 -8.75,-3.96667 -8.75,-8.75v-49.58333v0c0,-6.06667 -4.9,-10.85 -10.96667,-10.85c-5.95,0 -10.85,4.78333 -10.85,10.85zM754.65833,94.45001c-16.8,0 -30.56667,13.76667 -30.56667,30.56667v49.58333c0,6.06667 4.9,10.96667 10.96667,10.96667c5.95,0 10.85,-4.9 10.85,-10.96667v-16.45h17.5v16.45c0,6.06667 4.9,10.96667 10.96667,10.96667c5.95,0 10.85,-4.9 10.85,-10.96667v-49.58333c0,-16.8 -13.65,-30.56667 -30.56667,-30.56667zM745.90833,136.33334v-11.31667c0,-4.78333 3.96667,-8.75 8.75,-8.75c4.9,0 8.75,3.96667 8.75,8.75v11.31667zM841.80833,96.43334c-6.06667,0 -10.96667,4.9 -10.96667,10.96667v26.6l-18.55,-32.08333c-2.45,-4.2 -7.46667,-6.3 -12.25,-5.01667c-4.78333,1.28333 -8.05,5.6 -8.05,10.5v67.2c0,5.95 4.9,10.85 10.85,10.85c6.06667,0 10.96667,-4.9 10.96667,-10.85v-26.6l18.55,32.08333c2.45,4.2 7.46667,6.3 12.25,5.01667c4.78333,-1.28333 8.05,-5.6 8.05,-10.5v-67.2c0,-6.06667 -4.9,-10.96667 -10.85,-10.96667zM880.30833,174.60001c0,-6.06667 -4.78333,-10.96667 -10.85,-10.96667c-6.06667,0 -10.96667,4.9 -10.96667,10.96667c0,6.06667 4.9,10.85 10.96667,10.85c6.06667,0 10.85,-4.78333 10.85,-10.85zM915.075,96.43334h-16.91667c-6.06667,0 -10.85,4.9 -10.85,10.96667v67.2c0,5.95 4.78333,10.85 10.85,10.85c6.06667,0 10.96667,-4.9 10.96667,-10.85v-56.35h5.95c4.55,0 8.16667,3.61667 8.16667,8.05c0,3.61667 -2.33333,6.76667 -5.71667,7.81667c-5.83333,1.63333 -9.21667,7.7 -7.46667,13.53333c1.63333,5.83333 7.7,9.1 13.53333,7.46667c12.83333,-3.85 21.46667,-15.4 21.46667,-28.81667c0,-16.45 -13.41667,-29.86667 -29.98333,-29.86667zM1007.24167,126.30001c0,-16.45 -13.41667,-29.86667 -29.98333,-29.86667h-16.8c-6.06667,0 -10.96667,4.9 -10.96667,10.96667v67.2c0,5.95 4.9,10.85 10.96667,10.85c6.06667,0 10.85,-4.9 10.85,-10.85v-56.35h5.95c4.55,0 8.16667,3.61667 8.16667,8.05c0,3.73333 -2.33333,6.76667 -5.83333,7.81667c-4.78333,1.4 -7.93333,5.83333 -7.81667,10.85c0.11667,4.9 3.61667,9.21667 8.51667,10.26667c4.55,1.05 7.35,4.2 7.35,8.28333v11.08333c0,5.95 4.9,10.85 10.85,10.85c6.06667,0 10.96667,-4.9 10.96667,-10.85v-11.08333c0,-7.7 -2.8,-14.58333 -7.58333,-19.95c3.38333,-4.9 5.36667,-10.85 5.36667,-17.26667zM1053.325,156.98334c0,4.78333 -3.96667,8.75 -8.75,8.75c-4.78333,0 -8.75,-3.96667 -8.75,-8.75v-31.96667c0,-4.78333 3.96667,-8.75 8.75,-8.75c4.78333,0 8.75,3.96667 8.75,8.75zM1075.14167,125.01667c0,-16.8 -13.65,-30.56667 -30.56667,-30.56667c-16.8,0 -30.56667,13.76667 -30.56667,30.56667v31.96667c0,16.91667 13.76667,30.56667 30.56667,30.56667c16.91667,0 30.56667,-13.65 30.56667,-30.56667z" id="CompoundPath 1" fill="#04527c"/></g></svg>